<svg width="44" height="53" viewBox="0 0 44 53" fill="none" xmlns="http://www.w3.org/2000/svg">
<path d="M43.5 47C43.5 47.5636 43.0749 48.2223 42.0002 48.9153C40.9479 49.5938 39.392 50.2237 37.4248 50.7603C33.4975 51.8313 28.0438 52.5 22 52.5C15.9562 52.5 10.5025 51.8313 6.57521 50.7603C4.60798 50.2237 3.05214 49.5938 1.99983 48.9153C0.925132 48.2223 0.5 47.5636 0.5 47C0.5 46.4364 0.925132 45.7777 1.99983 45.0847C3.05214 44.4062 4.60798 43.7763 6.57521 43.2397C10.5025 42.1687 15.9562 41.5 22 41.5C28.0438 41.5 33.4975 42.1687 37.4248 43.2397C39.392 43.7763 40.9479 44.4062 42.0002 45.0847C43.0749 45.7777 43.5 46.4364 43.5 47Z" fill="#FDA9AE" fill-opacity="0.84"/>
<path d="M43.5 47C43.5 47.5636 43.0749 48.2223 42.0002 48.9153C40.9479 49.5938 39.392 50.2237 37.4248 50.7603C33.4975 51.8313 28.0438 52.5 22 52.5C15.9562 52.5 10.5025 51.8313 6.57521 50.7603C4.60798 50.2237 3.05214 49.5938 1.99983 48.9153C0.925132 48.2223 0.5 47.5636 0.5 47C0.5 46.4364 0.925132 45.7777 1.99983 45.0847C3.05214 44.4062 4.60798 43.7763 6.57521 43.2397C10.5025 42.1687 15.9562 41.5 22 41.5C28.0438 41.5 33.4975 42.1687 37.4248 43.2397C39.392 43.7763 40.9479 44.4062 42.0002 45.0847C43.0749 45.7777 43.5 46.4364 43.5 47Z" stroke="#FA979D"/>
<path d="M43.5 47C43.5 47.5636 43.0749 48.2223 42.0002 48.9153C40.9479 49.5938 39.392 50.2237 37.4248 50.7603C33.4975 51.8313 28.0438 52.5 22 52.5C15.9562 52.5 10.5025 51.8313 6.57521 50.7603C4.60798 50.2237 3.05214 49.5938 1.99983 48.9153C0.925132 48.2223 0.5 47.5636 0.5 47C0.5 46.4364 0.925132 45.7777 1.99983 45.0847C3.05214 44.4062 4.60798 43.7763 6.57521 43.2397C10.5025 42.1687 15.9562 41.5 22 41.5C28.0438 41.5 33.4975 42.1687 37.4248 43.2397C39.392 43.7763 40.9479 44.4062 42.0002 45.0847C43.0749 45.7777 43.5 46.4364 43.5 47Z" stroke="black" stroke-opacity="0.2"/>
<g filter="url(#filter0_ii_121_41)">
<path d="M22.4643 0C17.569 0.00577508 12.8759 1.95297 9.41446 5.41444C5.95299 8.87592 4.00579 13.569 4.00002 18.4643C3.99416 22.4647 5.30088 26.3566 7.71973 29.5429C7.71973 29.5429 8.22331 30.2059 8.30556 30.3016L22.4643 47L36.6298 30.2932C36.7036 30.2042 37.2089 29.5429 37.2089 29.5429L37.2106 29.5378C39.6282 26.3529 40.9343 22.4629 40.9286 18.4643C40.9228 13.569 38.9756 8.87592 35.5141 5.41444C32.0527 1.95297 27.3596 0.00577508 22.4643 0Z" fill="#DC0F1B"/>
</g>
<path d="M13 29V9H18.7165V16.8125H26.2835V9H32V29H26.2835V21.1875H18.7165V29H13Z" fill="white"/>
<defs>
<filter id="filter0_ii_121_41" x="-2" y="0" width="50.9287" height="51" filterUnits="userSpaceOnUse" color-interpolation-filters="sRGB">
<feFlood flood-opacity="0" result="BackgroundImageFix"/>
<feBlend mode="normal" in="SourceGraphic" in2="BackgroundImageFix" result="shape"/>
<feColorMatrix in="SourceAlpha" type="matrix" values="0 0 0 0 0 0 0 0 0 0 0 0 0 0 0 0 0 0 127 0" result="hardAlpha"/>
<feOffset dx="10" dy="4"/>
<feGaussianBlur stdDeviation="4"/>
<feComposite in2="hardAlpha" operator="arithmetic" k2="-1" k3="1"/>
<feColorMatrix type="matrix" values="0 0 0 0 0.7 0 0 0 0 0.0845833 0 0 0 0 0.121508 0 0 0 1 0"/>
<feBlend mode="multiply" in2="shape" result="effect1_innerShadow_121_41"/>
<feColorMatrix in="SourceAlpha" type="matrix" values="0 0 0 0 0 0 0 0 0 0 0 0 0 0 0 0 0 0 127 0" result="hardAlpha"/>
<feOffset dx="-8" dy="3"/>
<feGaussianBlur stdDeviation="3"/>
<feComposite in2="hardAlpha" operator="arithmetic" k2="-1" k3="1"/>
<feColorMatrix type="matrix" values="0 0 0 0 1 0 0 0 0 0.5375 0 0 0 0 0.56525 0 0 0 1 0"/>
<feBlend mode="hard-light" in2="effect1_innerShadow_121_41" result="effect2_innerShadow_121_41"/>
</filter>
</defs>
</svg>
