<svg width="50" height="51" viewBox="0 0 50 51" fill="none" xmlns="http://www.w3.org/2000/svg">
<g filter="url(#filter0_ii_120_33)">
<path d="M23.5717 1C18.6765 1.00578 13.9834 2.95297 10.5219 6.41444C7.06041 9.87592 5.11322 14.569 5.10744 19.4643C5.10158 23.4647 6.4083 27.3566 8.82716 30.5429C8.82716 30.5429 9.33073 31.2059 9.41298 31.3016L23.5717 48L37.7372 31.2932C37.811 31.2042 38.3163 30.5429 38.3163 30.5429L38.318 30.5378C40.7356 27.3529 42.0417 23.4629 42.036 19.4643C42.0302 14.569 40.083 9.87592 36.6216 6.41444C33.1601 2.95297 28.467 1.00578 23.5717 1Z" fill="#16A34A"/>
</g>
<g filter="url(#filter1_d_120_33)">
<path fill-rule="evenodd" clip-rule="evenodd" d="M23.6427 5.96484C16.1477 5.96484 10.0723 12.0403 10.0723 19.5353C10.0723 27.0302 16.1477 33.1057 23.6427 33.1057C31.1376 33.1057 37.2131 27.0302 37.2131 19.5353C37.2131 12.0403 31.1376 5.96484 23.6427 5.96484ZM18.893 16.1427C18.893 15.5189 19.0159 14.9013 19.2546 14.325C19.4933 13.7488 19.8431 13.2252 20.2842 12.7842C20.7252 12.3431 21.2488 11.9933 21.8251 11.7546C22.4013 11.5159 23.019 11.393 23.6427 11.393C24.2664 11.393 24.884 11.5159 25.4603 11.7546C26.0366 11.9933 26.5601 12.3431 27.0012 12.7842C27.4422 13.2252 27.7921 13.7488 28.0308 14.325C28.2695 14.9013 28.3923 15.5189 28.3923 16.1427C28.3923 17.4023 27.8919 18.6104 27.0012 19.5012C26.1105 20.3919 24.9024 20.8923 23.6427 20.8923C22.383 20.8923 21.1749 20.3919 20.2842 19.5012C19.3934 18.6104 18.893 17.4023 18.893 16.1427ZM32.1351 26.2988C31.1192 27.5766 29.8278 28.6084 28.3573 29.3171C26.8867 30.0258 25.2751 30.3931 23.6427 30.3916C22.0103 30.3931 20.3986 30.0258 18.9281 29.3171C17.4576 28.6084 16.1661 27.5766 15.1503 26.2988C17.3501 24.7205 20.3519 23.6064 23.6427 23.6064C26.9335 23.6064 29.9353 24.7205 32.1351 26.2988Z" fill="#F2F1F1"/>
</g>
<defs>
<filter id="filter0_ii_120_33" x="-0.892578" y="1" width="50.9287" height="51" filterUnits="userSpaceOnUse" color-interpolation-filters="sRGB">
<feFlood flood-opacity="0" result="BackgroundImageFix"/>
<feBlend mode="normal" in="SourceGraphic" in2="BackgroundImageFix" result="shape"/>
<feColorMatrix in="SourceAlpha" type="matrix" values="0 0 0 0 0 0 0 0 0 0 0 0 0 0 0 0 0 0 127 0" result="hardAlpha"/>
<feOffset dx="10" dy="4"/>
<feGaussianBlur stdDeviation="4"/>
<feComposite in2="hardAlpha" operator="arithmetic" k2="-1" k3="1"/>
<feColorMatrix type="matrix" values="0 0 0 0 0.11625 0 0 0 0 0.516667 0 0 0 0 0.263921 0 0 0 0.45 0"/>
<feBlend mode="multiply" in2="shape" result="effect1_innerShadow_120_33"/>
<feColorMatrix in="SourceAlpha" type="matrix" values="0 0 0 0 0 0 0 0 0 0 0 0 0 0 0 0 0 0 127 0" result="hardAlpha"/>
<feOffset dx="-8" dy="3"/>
<feGaussianBlur stdDeviation="3"/>
<feComposite in2="hardAlpha" operator="arithmetic" k2="-1" k3="1"/>
<feColorMatrix type="matrix" values="0 0 0 0 0.100833 0 0 0 0 0.733333 0 0 0 0 0.334096 0 0 0 0.37 0"/>
<feBlend mode="hard-light" in2="effect1_innerShadow_120_33" result="effect2_innerShadow_120_33"/>
</filter>
<filter id="filter1_d_120_33" x="0.0722656" y="0.964844" width="49.1406" height="49.1406" filterUnits="userSpaceOnUse" color-interpolation-filters="sRGB">
<feFlood flood-opacity="0" result="BackgroundImageFix"/>
<feColorMatrix in="SourceAlpha" type="matrix" values="0 0 0 0 0 0 0 0 0 0 0 0 0 0 0 0 0 0 127 0" result="hardAlpha"/>
<feOffset dx="1" dy="6"/>
<feGaussianBlur stdDeviation="5.5"/>
<feComposite in2="hardAlpha" operator="out"/>
<feColorMatrix type="matrix" values="0 0 0 0 0 0 0 0 0 0 0 0 0 0 0 0 0 0 0.17 0"/>
<feBlend mode="multiply" in2="BackgroundImageFix" result="effect1_dropShadow_120_33"/>
<feBlend mode="normal" in="SourceGraphic" in2="effect1_dropShadow_120_33" result="shape"/>
</filter>
</defs>
</svg>
